<svg width="2798" height="666" viewBox="0 0 2798 666" fill="none" xmlns="http://www.w3.org/2000/svg">
<path id="apt-101" d="M230 0.5V72L503 72.5V598.5V665.5H312V598.5H45V371.5H0V0.5H230Z" fill="#BFC4CC"/>
<path id="apt-102" d="M885 598.5H511V72.5H885V598.5Z" fill="#BFC4CC"/>
<path id="apt-103" d="M1122 0.5V72L1395 72.5V598.5V665.5H1204V598.5H937H892V371.5V0.5H1122Z" fill="#BFC4CC"/>
<path id="apt-104" d="M1403 72.5V665.5H1594V598.5H1861H1906V371.5V0.5L1677 0V72.5H1403Z" fill="#BFC4CC"/>
<path id="apt-105" d="M2287 598.5H1914V72.5H2287V598.5Z" fill="#BFC4CC"/>
<path id="apt-106" d="M2295 72.5V665.5H2486V598.5H2753V371.5H2798V0.5L2569 0V72.5H2295Z" fill="#BFC4CC"/>
</svg>
