<svg width="1920" height="1080" viewBox="0 0 1920 1080" fill="none" xmlns="http://www.w3.org/2000/svg">
  <path id="hagaflot-2" d="M932.5 507.5L916 514.5L1262 617.5L1277.5 606L1374 635V637L1361 650.5L1356.5 709.5L1279 762L1262 755L1211 790L1119 755L1102.5 765.5L1038.5 740V724.5L848 653L830.5 660.5L779.5 641V627L735.5 610L734 573L719.5 567.5V564.5L777 537.5L769 535.5V532L866.5 485.5L932.5 507.5Z" stroke="transparent" stroke-width="2" />
  <path id="hagaflot-4" d="M1605 515.5L1578.5 532.5L1501 515.5L1493 520.5L1438 507V500.5L1265.5 460L1256.5 465.5L1211 455V448.5L1162.5 436.5V405L1154.5 403.5V400L1186 384.5L1180 382.5V380.5L1237.5 351L1298.5 363.5L1289 367.5L1588.5 425L1596.5 418.5L1675.5 433.5V436.5L1666.5 445L1661 491L1618 518.5L1605 515.5Z" stroke="transparent" stroke-width="2" />
  <path id="hagaflot-6" d="M1809 369L1792.5 379.5L1728.5 369L1723 372L1678 364.5V360.5L1456.5 324L1452 327L1415 318L1373.5 309.5V286L1368 284.5V282.5L1388 271.5L1382 269L1422 249L1473.5 256L1468.5 260L1788 305L1792.5 300.5L1859 311.5L1851.5 319L1845 355L1819.5 370.5L1809 369Z" stroke="transparent" stroke-width="2" />
  <path id="hagaflot-5" d="M579.5 437.5L625 425L632.5 427.5L706 406L703.5 357L662 346L650 350.5L573 331.5V325L537 315L526.5 320L471.5 307V299.5L438.5 290L428.5 295L371 281V274.5L341.5 266L265 287.5L269.5 290L223.5 302L224.5 305.5L234.5 307L238.5 331.5L252.5 335V342L274.5 348L285.5 346L352.5 366.5V373L401 390L415.5 386L492.5 410V418L521.5 427.5L534.5 425L577.5 437.5" stroke="transparent" stroke-width="2" />
  <path id="hagaflot-3" d="M994 324.5L963.5 333.5L923 324.5L911.5 328L882.5 321.5V315.5L798 299L788.5 302.5L739 292V286.5L666 271L657.5 274.5L635 268V264L615 260.5L614 240L605.5 237.5L637.5 227.5L633 225L689 208L720.5 215.5L714 218L783 229.5L789.5 226.5L824 233L816.5 235.5L880 247L888.5 242.5L926.5 250.5L920.5 253.5L1006 268L1012.5 263.5L1053 272L1054 273.5L1049.5 276.5V313L1000.5 326.5L994 324.5Z" stroke="transparent" stroke-width="2" />
  <path id="hagaflot-1" d="M1086.5 246L1064 252L1030 246L1020.5 249L995.5 244.5V240.5L870.5 220.5L864 222.5L844 219V216L822.5 212.5V194L816 192L815 190.5L839.5 184L835.5 183L879 168.5L911.5 173.5L904.5 176L1090.5 202.5L1098.5 198.5L1137 205.5L1132 208V239L1093.5 247.5L1086.5 246Z" stroke="transparent" stroke-width="2" />
</svg>